<?xml version="1.0" standalone="no"?>
<!DOCTYPE svg PUBLIC "-//W3C//DTD SVG 20010904//EN"
 "http://www.w3.org/TR/2001/REC-SVG-20010904/DTD/svg10.dtd">
<svg version="1.0" xmlns="http://www.w3.org/2000/svg"
 width="169.000000pt" height="202.000000pt" viewBox="0 0 169.000000 202.000000"
 preserveAspectRatio="xMidYMid meet">

<g transform="translate(0.000000,202.000000) scale(0.100000,-0.100000)"
fill="#000000" stroke="none">
<path d="M779 1780 c-46 -24 -85 -69 -129 -149 -19 -34 -44 -74 -55 -88 -19
-23 -24 -24 -60 -14 -56 15 -133 14 -194 -5 -64 -19 -135 -80 -152 -131 -26
-79 10 -228 78 -320 29 -40 29 -50 0 -93 -56 -82 -90 -186 -89 -271 0 -74 13
-105 57 -141 57 -47 110 -60 237 -60 l117 1 23 -37 c12 -20 25 -41 27 -47 9
-22 85 -112 115 -137 71 -58 174 -46 247 29 54 56 115 142 121 169 3 17 16 19
148 25 105 4 153 10 175 21 139 74 154 250 36 428 -23 34 -41 69 -41 78 0 9
14 30 31 47 16 16 44 58 61 93 27 58 30 71 26 147 -3 75 -6 87 -34 121 -62 77
-144 102 -284 86 -46 -6 -83 -5 -95 1 -11 5 -35 40 -54 78 -37 74 -114 163
-156 179 -41 16 -117 11 -156 -10z m138 -68 c47 -25 149 -176 138 -204 -3 -8
-44 -29 -91 -47 l-85 -32 -72 26 c-40 15 -84 32 -99 37 -33 12 -36 36 -8 71
11 14 20 28 20 32 0 19 78 109 105 121 39 17 53 17 92 -4z m-362 -266 c13 -10
13 -16 0 -52 -8 -23 -20 -72 -26 -108 -11 -57 -18 -71 -46 -94 -19 -15 -52
-44 -74 -65 -22 -21 -47 -37 -56 -35 -9 2 -34 36 -55 77 -34 66 -38 83 -38
146 0 65 3 74 28 98 15 14 38 30 52 36 33 13 197 11 215 -3z m847 4 c68 -28
91 -79 77 -169 -8 -52 -69 -158 -96 -168 -8 -3 -31 10 -51 29 -20 19 -53 47
-73 62 -26 18 -38 37 -42 59 -2 18 -12 62 -22 99 -25 96 -24 98 89 98 52 0
105 -4 118 -10z m-654 -56 c12 -8 22 -16 22 -18 0 -3 -34 -25 -75 -50 l-75
-46 0 39 c0 21 5 52 11 70 11 31 13 32 53 26 22 -4 51 -13 64 -21z m356 4 c20
-31 32 -98 17 -98 -16 0 -117 58 -131 75 -10 12 -9 16 6 21 11 3 28 9 39 14
34 15 54 11 69 -12z m-102 -123 c54 -30 102 -55 107 -55 5 0 19 -12 31 -27 20
-26 22 -37 18 -173 -4 -172 -6 -177 -113 -235 -38 -21 -91 -50 -117 -64 -43
-24 -49 -25 -84 -12 -36 13 -150 78 -226 129 l-38 25 0 139 c0 164 7 185 77
221 27 14 82 43 123 66 41 22 86 41 99 41 13 0 69 -25 123 -55z m292 -203 c32
-47 32 -53 -1 -91 -41 -46 -51 -40 -55 32 -6 108 10 125 56 59z m-786 -35 c2
-31 -2 -66 -8 -77 -11 -20 -11 -20 -45 6 -20 15 -35 35 -35 47 0 24 58 89 75
84 5 -2 11 -29 13 -60z m-99 -124 c21 -21 52 -50 69 -65 23 -21 33 -42 41 -85
6 -32 17 -84 24 -115 8 -32 11 -60 9 -63 -3 -3 -51 -5 -107 -5 -97 0 -103 1
-142 30 -35 26 -43 38 -49 75 -8 59 -1 96 37 175 50 106 59 110 118 53z m991
27 c0 -5 8 -18 18 -28 29 -30 65 -130 66 -187 1 -66 -20 -98 -80 -124 -57 -26
-211 -30 -220 -7 -8 21 43 216 63 240 61 75 153 139 153 106z m-712 -230 c83
-54 81 -78 -8 -95 -33 -6 -37 -4 -52 28 -9 19 -20 51 -23 71 -9 47 3 47 83 -4z
m447 3 c-16 -65 -34 -93 -58 -93 -28 0 -97 27 -97 38 1 11 123 82 144 82 15 0
17 -5 11 -27z m-165 -143 c91 -36 99 -44 80 -73 -7 -12 -19 -33 -26 -47 -7
-14 -36 -47 -64 -75 -46 -45 -55 -50 -95 -49 -24 0 -55 8 -68 17 -31 20 -129
165 -125 185 2 8 25 20 54 28 29 7 67 20 85 28 50 22 79 19 159 -14z"/>
<path d="M763 1136 c-42 -40 -47 -50 -50 -98 -9 -115 51 -181 164 -180 158 1
214 159 103 285 -31 36 -34 37 -101 37 -69 0 -70 -1 -116 -44z"/>
</g>
</svg>
